<?xml version="1.0" encoding="UTF-8" standalone="no"?>
<!-- Created with Inkscape (http://www.inkscape.org/) -->

<svg
   xmlns:dc="http://purl.org/dc/elements/1.1/"
   xmlns:cc="http://creativecommons.org/ns#"
   xmlns:rdf="http://www.w3.org/1999/02/22-rdf-syntax-ns#"
   xmlns:svg="http://www.w3.org/2000/svg"
   xmlns="http://www.w3.org/2000/svg"
   xmlns:sodipodi="http://sodipodi.sourceforge.net/DTD/sodipodi-0.dtd"
   xmlns:inkscape="http://www.inkscape.org/namespaces/inkscape"
   width="717"
   height="196.69"
   id="svg2"
   version="1.1"
   inkscape:version="0.48.2 r9819"
   sodipodi:docname="melodia logo.svg"
   inkscape:export-filename="/Users/ericdebelak/Desktop/melodialogotrans.png"
   inkscape:export-xdpi="150"
   inkscape:export-ydpi="150">
  <defs
     id="defs4">
    <style
       id="style6"
       type="text/css">
   
    .str0 {stroke:#131516;stroke-width:3}
    .str1 {stroke:#131516;stroke-width:42}
    .fil1 {fill:none}
    .fil0 {fill:#131516}
   
  </style>
  </defs>
  <sodipodi:namedview
     id="base"
     pagecolor="#ffffff"
     bordercolor="#666666"
     borderopacity="1.0"
     inkscape:pageopacity="0.0"
     inkscape:pageshadow="2"
     inkscape:zoom="1"
     inkscape:cx="392.59753"
     inkscape:cy="208.91659"
     inkscape:document-units="px"
     inkscape:current-layer="layer1"
     showgrid="false"
     inkscape:window-width="1440"
     inkscape:window-height="852"
     inkscape:window-x="0"
     inkscape:window-y="0"
     inkscape:window-maximized="1"
     fit-margin-top="0"
     fit-margin-left="0"
     fit-margin-right="0"
     fit-margin-bottom="0" />
  <metadata
     id="metadata7">
    <rdf:RDF>
      <cc:Work
         rdf:about="">
        <dc:format>image/svg+xml</dc:format>
        <dc:type
           rdf:resource="http://purl.org/dc/dcmitype/StillImage" />
        <dc:title></dc:title>
      </cc:Work>
    </rdf:RDF>
  </metadata>
  <g
     inkscape:label="Layer 1"
     inkscape:groupmode="layer"
     id="layer1"
     transform="translate(-20,-470.61151)">
    <rect
       style="fill:#000000"
       id="rect2985-4"
       width="700.26379"
       height="0.7042883"
       x="11.052947"
       y="525.18573"
       transform="matrix(0.99959467,-0.02846904,0.02846904,0.99959467,0,0)" />
    <rect
       style="fill:#000000"
       id="rect2985-47"
       width="700.26379"
       height="0.70428824"
       x="12.34041"
       y="550.23254"
       transform="matrix(0.99959467,-0.02846904,0.02846904,0.99959467,0,0)" />
    <rect
       style="fill:#000000"
       id="rect2985-0"
       width="700.26379"
       height="0.70428824"
       x="13.627873"
       y="575.27936"
       transform="matrix(0.99959467,-0.02846904,0.02846904,0.99959467,0,0)" />
    <rect
       style="fill:#000000"
       id="rect2985-2"
       width="700.26379"
       height="0.70428824"
       x="14.915337"
       y="600.32611"
       transform="matrix(0.99959467,-0.02846904,0.02846904,0.99959467,0,0)" />
    <rect
       style="fill:#000000"
       id="rect2985-1"
       width="700.26379"
       height="0.70428824"
       x="16.202799"
       y="625.37292"
       transform="matrix(0.99959467,-0.02846904,0.02846904,0.99959467,0,0)" />
    <text
       xml:space="preserve"
       style="font-size:144px;font-style:normal;font-variant:normal;font-weight:bold;font-stretch:normal;line-height:125%;letter-spacing:0px;word-spacing:0px;fill:#ff6600;fill-opacity:1;stroke:none;font-family:Sawasdee;-inkscape-font-specification:Sawasdee Bold"
       x="195.9747"
       y="613.41541"
       id="text3033"
       sodipodi:linespacing="125%"><tspan
         sodipodi:role="line"
         id="tspan3035"
         x="195.9747"
         y="613.41541">M</tspan></text>
    <text
       xml:space="preserve"
       style="font-size:81.61847687px;font-style:normal;font-variant:normal;font-weight:bold;font-stretch:normal;line-height:125%;letter-spacing:0px;word-spacing:0px;fill:#476aff;fill-opacity:1;stroke:none;font-family:Sawasdee;-inkscape-font-specification:Sawasdee Bold"
       x="328.15982"
       y="640.8028"
       id="text3037"
       sodipodi:linespacing="125%"
       transform="matrix(0.9999209,-0.02366566,0.01257763,0.99978143,0,0)"><tspan
         sodipodi:role="line"
         id="tspan3039"
         x="328.15982"
         y="640.8028">e</tspan></text>
    <rect
       style="fill:#000000"
       id="rect3059"
       width="5.7137542"
       height="99.778618"
       x="389.6922"
       y="507.49274"
       transform="matrix(0.99983649,0.01808308,0.02892435,0.9995816,0,0)" />
    <path
       sodipodi:type="arc"
       style="fill:none;stroke:#000000;stroke-width:9;stroke-miterlimit:4;stroke-opacity:1;stroke-dasharray:none"
       id="path3061"
       sodipodi:cx="359.64285"
       sodipodi:cy="260.88019"
       sodipodi:rx="30.357143"
       sodipodi:ry="23.214285"
       d="m 390,260.88019 c 0,12.82089 -13.59136,23.21428 -30.35715,23.21428 -16.76578,0 -30.35714,-10.39339 -30.35714,-23.21428 0,-12.8209 13.59136,-23.21429 30.35714,-23.21429 16.76579,0 30.35715,10.39339 30.35715,23.21429 z"
       transform="matrix(0.64555798,0,0,0.48995582,225.54363,447.37226)" />
    <g
       id="g3034"
       transform="translate(1.4746186,-0.9898475)">
      <path
         transform="matrix(0.64555798,0,0,0.48995582,294.7833,470.50181)"
         d="m 390,260.88019 c 0,12.82089 -13.59136,23.21428 -30.35715,23.21428 -16.76578,0 -30.35714,-10.39339 -30.35714,-23.21428 0,-12.8209 13.59136,-23.21429 30.35714,-23.21429 16.76579,0 30.35715,10.39339 30.35715,23.21429 z"
         sodipodi:ry="23.214285"
         sodipodi:rx="30.357143"
         sodipodi:cy="260.88019"
         sodipodi:cx="359.64285"
         id="path3061-4"
         style="fill:#000000;stroke:#000000;stroke-width:9;stroke-miterlimit:4;stroke-opacity:1;stroke-dasharray:none"
         sodipodi:type="arc" />
      <rect
         transform="matrix(1,0,0.03997391,0.99920072,0,0)"
         y="492.01837"
         x="520.85712"
         height="107.21277"
         width="4.2857141"
         id="rect3059-0"
         style="fill:#000000" />
      <path
         sodipodi:nodetypes="cccccc"
         inkscape:connector-curvature="0"
         id="path3867"
         d="m 544.87536,494.01882 c 5.94617,3.78101 10.92904,7.56268 15.3113,15.34681 5.094,15.36295 4.794,26.76535 6.54579,40.56704 -3.35232,-11.85181 -1.43706,-24.88779 -9.04809,-36.77241 -3.90153,-6.43056 -9.53513,-5.3395 -13.89507,-7.77157 z"
         style="fill:#000000;stroke:#000000;stroke-width:1.37264323px;stroke-linecap:butt;stroke-linejoin:miter;stroke-opacity:1" />
    </g>
    <text
       xml:space="preserve"
       style="font-size:108.16051483px;font-style:normal;font-variant:normal;font-weight:normal;font-stretch:normal;line-height:125%;letter-spacing:0px;word-spacing:0px;fill:#007400;fill-opacity:1;stroke:none;font-family:Sawasdee;-inkscape-font-specification:Sawasdee"
       x="565.41595"
       y="642.09344"
       id="text3869"
       sodipodi:linespacing="125%"
       transform="matrix(0.99965059,-0.03837827,0.02829399,0.99926328,0,0)"><tspan
         sodipodi:role="line"
         id="tspan3871"
         x="565.41595"
         y="642.09344">i</tspan></text>
    <text
       xml:space="preserve"
       style="font-size:73.97216034px;font-style:normal;font-variant:normal;font-weight:bold;font-stretch:normal;line-height:125%;letter-spacing:0px;word-spacing:0px;fill:#d90000;fill-opacity:1;stroke:none;font-family:Sawasdee;-inkscape-font-specification:Sawasdee Bold"
       x="625.59076"
       y="589.57886"
       id="text3873"
       sodipodi:linespacing="125%"><tspan
         sodipodi:role="line"
         id="tspan3875"
         x="625.59076"
         y="589.57886">a</tspan></text>
    <path
       style="fill:#000000;stroke:#000000;stroke-width:9;stroke-miterlimit:4;stroke-opacity:1;stroke-dasharray:none"
       id="path3899"
       d=""
       inkscape:connector-curvature="0" />
    <g
       style="fill:#000000;fill-rule:evenodd"
       id="g3031"
       transform="matrix(0.01217726,0,0,0.01217726,43.30133,499.76904)">
      <path
         class="fil0 str0"
         d="m 4261.8807,6645.7003 c -232.8583,64.7376 -442.8125,209.4451 -637.4973,430.3144 -194.6848,224.6774 -290.1185,472.2034 -290.1185,738.7698 0,167.5561 57.2602,357.9607 167.9633,559.7896 110.7032,205.6369 278.6665,354.1525 496.2554,449.3548 72.5296,15.2324 106.8858,53.3133 106.8858,106.6266 0,19.0405 -26.7215,38.0809 -91.6164,53.3133 -347.3787,-87.5861 -633.6799,-274.1826 -855.0862,-552.1734 -221.4062,-281.7988 -335.9267,-601.6785 -343.5614,-967.2553 11.4521,-392.2335 129.7899,-757.8103 355.0135,-1092.9224 229.0409,-338.9202 522.9768,-578.83 881.8076,-719.7294 L 3788.5294,4299.9156 c -587.8717,487.4358 -1065.0403,993.912 -1435.3232,1527.0449 -370.2829,529.3248 -561.1503,1104.3467 -576.4197,1725.0657 7.6347,277.9907 64.8949,548.3652 171.7807,807.3155 106.8858,262.7583 267.2144,498.86 480.986,715.9213 431.3604,430.3144 992.5107,654.9918 1675.8162,677.8404 232.8583,-15.2324 480.986,-57.1214 748.2004,-125.6671 l -591.6891,-2981.736 z m 274.8491,-38.0809 595.5065,2928.4227 c 587.8717,-236.1017 881.8076,-750.1941 881.8076,-1534.6611 -34.3562,-262.7583 -110.7031,-498.86 -240.493,-708.3051 -125.9725,-213.2531 -293.9359,-380.8092 -507.7074,-502.6681 -213.7716,-121.859 -454.2645,-182.7884 -729.1137,-182.7884 z M 3754.1733,2647.2037 c 125.9725,-76.1618 271.0318,-209.4451 427.5431,-396.0416 156.5113,-182.7884 309.2052,-399.8496 454.2645,-643.5675 148.8766,-247.526 267.2144,-498.8601 355.0135,-754.00224 87.799,-251.33407 129.7898,-491.24387 129.7898,-712.1132 0,-95.202304 -7.6347,-190.404604 -26.7214,-274.18263 -15.2694,-137.09131 -57.2603,-243.71789 -129.7899,-316.07163 -72.5296,-68.54566 -164.146,-106.62658 -278.6665,-106.62658 -229.0409,0 -435.1777,140.8994 -618.4105,422.69821 -141.2419,243.71789 -259.5797,533.13288 -343.5614,860.62879 -87.799,331.30398 -137.4246,658.79988 -145.0593,990.10388 19.0868,377.0012 80.1644,685.4566 175.5981,929.1745 z m -240.493,220.8693 C 3341.8996,2251.1621 3246.4659,1622.8269 3227.3791,983.06749 c 3.8174,-411.27394 45.8082,-795.89123 125.9725,-1153.85188 76.347,-357.96065 187.0501,-666.4161 332.1094,-932.98251 141.2419,-266.5665 305.3879,-468.3953 488.6207,-605.4867 164.146,-121.8589 282.4838,-186.5965 347.3787,-186.5965 49.6256,0 91.6164,19.0405 129.7899,53.3133 38.1735,34.2729 87.799,91.3942 148.8766,167.5561 454.2645,643.5675 683.3055,1420.41829 683.3055,2326.74418 0,430.31442 -57.2603,849.20452 -171.7807,1268.09462 -110.7031,415.082 -274.8492,811.1236 -492.438,1180.5085 -221.4063,373.1931 -480.986,696.8809 -782.5566,974.8716 l 309.2053,1500.3882 c 167.9633,-19.0404 282.4838,-34.2728 347.3787,-34.2728 290.1186,0 549.6983,60.9295 790.1913,182.7884 240.493,121.859 446.6298,285.6069 614.5932,495.052 167.9633,205.637 297.7532,441.7387 389.3696,708.3051 87.799,266.5664 137.4245,544.5572 137.4245,833.9721 0,449.3549 -118.3378,860.6288 -355.0134,1230.0138 -236.6757,369.3849 -591.6891,639.7594 -1068.8577,814.9317 30.5387,186.5965 83.9816,456.9713 164.146,803.5073 76.3469,350.345 133.6072,628.335 171.7807,833.972 38.1735,205.637 53.4428,403.658 53.4428,597.871 0,300.839 -72.5296,567.405 -217.5888,803.507 -148.8767,236.102 -347.3788,418.89 -599.3238,548.365 -248.1277,129.475 -522.9768,194.213 -820.7301,194.213 -419.9084,0 -786.3739,-118.051 -1099.3965,-350.344 -313.0226,-236.102 -480.986,-552.174 -496.2554,-955.832 11.4521,-178.98 53.4429,-346.536 129.7899,-506.476 76.347,-159.94 179.4154,-289.415 313.0226,-388.425 129.7899,-102.819 286.3012,-156.132 465.7166,-167.556 148.8766,0 290.1185,41.889 423.7257,121.859 129.7899,83.778 236.6757,194.212 316.84,335.112 76.347,140.899 118.3378,297.031 118.3378,464.587 0,224.677 -76.3469,415.082 -229.0409,571.214 -152.694,156.132 -347.3788,236.102 -580.2371,236.102 l -87.799,0 c 148.8766,228.485 393.187,346.536 732.931,346.536 171.7807,0 347.3788,-38.081 522.9768,-106.627 179.4154,-72.353 328.2921,-167.556 454.2646,-289.415 125.9725,-121.859 209.9542,-251.334 244.3103,-388.425 64.8949,-156.132 95.4337,-373.193 95.4337,-643.568 0,-182.788 -19.0867,-365.576 -53.4429,-548.365 -34.3561,-178.98 -87.799,-418.89 -160.3286,-715.921 -72.5296,-293.223 -125.9725,-521.709 -156.5113,-677.8405 -229.041,57.1214 -465.7166,87.5865 -713.8443,87.5865 -416.091,0 -809.278,-83.7784 -1179.5608,-255.1425 -370.2829,-171.3642 -694.7575,-407.4659 -977.2414,-712.1132 -278.6664,-304.6474 -496.2553,-647.3757 -652.7666,-1035.8011 -152.694,-384.6173 -232.8583,-788.275 -236.6757,-1207.1651 15.2694,-388.4254 87.799,-761.6184 225.2236,-1111.9629 137.4246,-354.1526 313.0226,-689.2647 530.6115,-1001.5282 217.5889,-312.2635 442.8125,-597.8704 675.6708,-853.0126 236.6756,-251.3341 545.8809,-575.0219 935.2505,-967.2554 z"
         id="path9"
         style="fill:#000000;stroke:#131516;stroke-width:11.43815327"
         inkscape:connector-curvature="0" />
    </g>
  </g>
</svg>
