<?xml version="1.0" encoding="UTF-8" standalone="no"?>
<!-- Created with Inkscape (http://www.inkscape.org/) -->

<svg
   xmlns:dc="http://purl.org/dc/elements/1.1/"
   xmlns:cc="http://creativecommons.org/ns#"
   xmlns:rdf="http://www.w3.org/1999/02/22-rdf-syntax-ns#"
   xmlns:svg="http://www.w3.org/2000/svg"
   xmlns="http://www.w3.org/2000/svg"
   xmlns:sodipodi="http://sodipodi.sourceforge.net/DTD/sodipodi-0.dtd"
   xmlns:inkscape="http://www.inkscape.org/namespaces/inkscape"
   width="473.99652"
   height="187.56271"
   id="svg2854"
   version="1.1"
   inkscape:version="0.48.2 r9819"
   sodipodi:docname="TrainBorder.svg"
   inkscape:export-filename="/Users/ericdebelak/Downloads/Train.png"
   inkscape:export-xdpi="600"
   inkscape:export-ydpi="600">
  <defs
     id="defs2856">
    <inkscape:perspective
       sodipodi:type="inkscape:persp3d"
       inkscape:vp_x="0 : 526.18109 : 1"
       inkscape:vp_y="0 : 1000 : 0"
       inkscape:vp_z="744.09448 : 526.18109 : 1"
       inkscape:persp3d-origin="372.04724 : 350.78739 : 1"
       id="perspective2862" />
    <inkscape:perspective
       id="perspective2849"
       inkscape:persp3d-origin="0.5 : 0.33333333 : 1"
       inkscape:vp_z="1 : 0.5 : 1"
       inkscape:vp_y="0 : 1000 : 0"
       inkscape:vp_x="0 : 0.5 : 1"
       sodipodi:type="inkscape:persp3d" />
    <clipPath
       clipPathUnits="userSpaceOnUse"
       id="clipPath2987">
      <rect
         style="fill:#000000;fill-opacity:1;fill-rule:nonzero;stroke:#000000;stroke-width:0.35433072;stroke-miterlimit:4;stroke-opacity:1;stroke-dasharray:none;stroke-dashoffset:0"
         id="rect2989"
         width="589.92908"
         height="103.03556"
         x="17.450245"
         y="518.37244" />
    </clipPath>
    <clipPath
       clipPathUnits="userSpaceOnUse"
       id="clipPath2995">
      <rect
         style="fill:#000000;fill-opacity:1;fill-rule:nonzero;stroke:#000000;stroke-width:0.35433072;stroke-miterlimit:4;stroke-opacity:1;stroke-dasharray:none;stroke-dashoffset:0"
         id="rect2997"
         width="131.82491"
         height="83.337585"
         x="11.38933"
         y="519.38263" />
    </clipPath>
    <clipPath
       clipPathUnits="userSpaceOnUse"
       id="clipPath3003">
      <rect
         style="fill:#000000;fill-opacity:1;fill-rule:nonzero;stroke:#000000;stroke-width:0.35433072;stroke-miterlimit:4;stroke-opacity:1;stroke-dasharray:none;stroke-dashoffset:0"
         id="rect3005"
         width="114.14724"
         height="74.751289"
         x="140.18378"
         y="527.81158" />
    </clipPath>
  </defs>
  <sodipodi:namedview
     id="base"
     pagecolor="#ffffff"
     bordercolor="#666666"
     borderopacity="1.0"
     inkscape:pageopacity="0.0"
     inkscape:pageshadow="2"
     inkscape:zoom="1.979899"
     inkscape:cx="202.22486"
     inkscape:cy="62.821685"
     inkscape:document-units="px"
     inkscape:current-layer="layer1"
     showgrid="false"
     inkscape:window-width="1440"
     inkscape:window-height="852"
     inkscape:window-x="0"
     inkscape:window-y="0"
     inkscape:window-maximized="1"
     fit-margin-top="0"
     fit-margin-left="0"
     fit-margin-right="0"
     fit-margin-bottom="0" />
  <metadata
     id="metadata2859">
    <rdf:RDF>
      <cc:Work
         rdf:about="">
        <dc:format>image/svg+xml</dc:format>
        <dc:type
           rdf:resource="http://purl.org/dc/dcmitype/StillImage" />
        <dc:title></dc:title>
      </cc:Work>
    </rdf:RDF>
  </metadata>
  <g
     inkscape:label="Layer 1"
     inkscape:groupmode="layer"
     id="layer1"
     transform="translate(-23.702572,-422.76207)">
    <path
       style="fill:#d90000;fill-opacity:1;fill-rule:evenodd;stroke:none;stroke-width:0.15687691px;marker:none;visibility:visible;display:inline;overflow:visible;enable-background:accumulate"
       d="m 499.29241,537.33104 -18.40625,0 0,5.75 4.6875,0 0,52.96875 10.15625,0 c 0.49797,2.54623 1.82304,4.80723 3.6875,6.5625 l -51.03125,0 c 1.58716,-1.68965 2.72002,-3.77652 3.15625,-6.09375 l 11.71875,0 0,-52.96875 4.8125,0 0,-5.75 -99.28125,0 0,5.75 4.6875,0 0,52.96875 10.1875,0 c 0.45296,2.31605 1.58406,4.41332 3.1875,6.09375 l -49.75,0 c 1.47407,-1.6482 2.52097,-3.66237 2.9375,-5.875 l 11.71875,0 0,-52.96875 4.8125,0 0,-5.75 -28.71875,0 0,-7.125 4.375,0 0,-5.9375 -49.71875,0 0,5.9375 4.53125,0 0,7.125 -29.75,0 0,5.75 4.71875,0 0,52.96875 10.15625,0 c 0.43264,2.21217 1.47832,4.23497 2.96875,5.875 l -50.0625,0 c 1.23504,-1.54229 2.1271,-3.36288 2.5,-5.34375 l 11.71875,0 0,-52.96875 4.8125,0 0,-5.71875 -99.28125,0 0,5.71875 4.6875,0 0,52.96875 10.1875,0 c 0.3876,1.98187 1.28006,3.80733 2.53125,5.34375 l -0.4375,0 -42.3125,0 c 1.15074,-1.55465 1.96263,-3.37725 2.28125,-5.40625 l 7.5625,0 0,-62.59375 5.4375,0 0,-5.75 -50.312499,0 0,5.75 5.4375,0 0,19.40625 -15.1875,0 -9.40625,0 -7.46875,0 -5.9375,0 c 0,0 -3.41074,-0.32779 -5.1875,1.90625 -1.72457,2.16837 -1.40625,5.03125 -1.40625,5.03125 -0.81639,0.71833 -2.40326,1.33614 -3.8125,2.3125 -0.0513,2.76296 -0.0625,9.88297 -0.0625,12.21875 1.46544,0.71871 2.86135,1.29589 3.875,1.875 l 0,2.6875 -1.75,2.4375 -10.53125,14.71875 17.71875,0 c 0.36069,1.99999 1.20404,3.84181 2.375,5.40625 l -29.59375,0 0,19.53125 52.75,0 0,30.20958 -52.75,0 0,19.56252 76.749999,0 62.875,0 424.78125,0 0,-19.56252 -56.65625,0 0,-30.20958 56.65625,0 0,-19.53125 -27.875,0 c 1.83121,-1.76241 3.1167,-4.02842 3.59375,-6.5625 l 11.71875,0 0,-52.96875 4.8125,0 0,-5.75 -12.84375,0 0,-7.125 4.40625,0 0,-5.96875 -49.71875,0 0,5.96875 4.53125,0 0,7.125 -17.21875,0 -10.03125,0 z m -400.437499,0.15625 21.281249,0 0,16.5 -21.281249,0 0,-16.5 z m 397.281249,14.78125 29.28125,0 0,18.90625 -29.28125,0 0,-18.90625 z m 39.25,0 29.25,0 0,18.90625 -29.25,0 0,-18.90625 z m -151.34375,0.46875 29.28125,0 0,18.9375 -29.28125,0 0,-18.9375 z m 39.25,0 29.28125,0 0,18.9375 -29.28125,0 0,-18.9375 z m -150.75,0.21875 29.28125,0 0,18.9375 -29.28125,0 0,-18.9375 z m 39.25,0 29.28125,0 0,18.9375 -29.28125,0 0,-18.9375 z m -151.71875,0.5625 29.28125,0 0,18.90625 -29.28125,0 0,-18.90625 z m 39.21875,0 29.3125,0 0,18.90625 -29.3125,0 0,-18.90625 z m 322.5,42.53125 15.75,0 c 0.47717,2.53466 1.76186,4.79992 3.59375,6.5625 l -23.03125,0 c 1.86176,-1.75527 3.18952,-4.01627 3.6875,-6.5625 z m -112.09375,0.46875 15.75,0 c 0.43623,2.31723 1.56909,4.4041 3.15625,6.09375 l -22.09375,0 c 1.60106,-1.68043 2.73454,-3.7777 3.1875,-6.09375 z m -111.5,0.21875 15.75,0 c 0.41654,2.21262 1.46343,4.22681 2.9375,5.875 l -21.65625,0 c 1.48819,-1.64004 2.53611,-3.66282 2.96875,-5.875 z m -222.156249,0.46875 20.28125,0 c 0.31891,2.0309 1.12876,3.85067 2.28125,5.40625 l -24.90625,0 c 1.16911,-1.56444 1.98306,-3.40626 2.34375,-5.40625 z m 109.687499,0.0625 15.75,0 c 0.37291,1.98088 1.23371,3.80146 2.46875,5.34375 l -20.75,0 c 1.24927,-1.53642 2.14365,-3.36188 2.53125,-5.34375 z m -89.968749,24.875 52.749999,0 0,30.20958 -52.749999,0 0,-30.20958 z m 72.249999,0 52.75,0 0,30.20958 -52.75,0 0,-30.20958 z m 72.28125,0 52.71875,0 0,30.20958 -52.71875,0 0,-30.20958 z m 72.25,0 52.75,0 0,30.20958 -52.75,0 0,-30.20958 z m 72.25,0 52.75,0 0,30.20958 -52.75,0 0,-30.20958 z m 72.25,0 54.71875,0 0,30.20958 -54.71875,0 0,-30.20958 z"
       id="rect2385"
       sodipodi:nodetypes="ccccccccccccccccccccccccccccccccccccccccccccccccccccccccccccccccccsccccccccccccccccccccccccccccccccccccccccccccccccccccccccccccccccccccccccccccccccccccccccccccccccccccccccccccccccccccccccccccccccccccccccccc"
       clip-path="url(#clipPath2995)"
       inkscape:connector-curvature="0"
       transform="translate(2.0203051,-0.50507627)"
       inkscape:export-filename="/Users/ericdebelak/Downloads/TrainBorder/Train.png"
       inkscape:export-xdpi="600"
       inkscape:export-ydpi="600" />
    <path
       clip-path="url(#clipPath3003)"
       sodipodi:nodetypes="ccccccccccccccccccccccccccccccccccccccccccccccccccccccccccccccccccsccccccccccccccccccccccccccccccccccccccccccccccccccccccccccccccccccccccccccccccccccccccccccccccccccccccccccccccccccccccccccccccccccccccccccc"
       id="path2993"
       d="m 499.29241,537.33104 -18.40625,0 0,5.75 4.6875,0 0,52.96875 10.15625,0 c 0.49797,2.54623 1.82304,4.80723 3.6875,6.5625 l -51.03125,0 c 1.58716,-1.68965 2.72002,-3.77652 3.15625,-6.09375 l 11.71875,0 0,-52.96875 4.8125,0 0,-5.75 -99.28125,0 0,5.75 4.6875,0 0,52.96875 10.1875,0 c 0.45296,2.31605 1.58406,4.41332 3.1875,6.09375 l -49.75,0 c 1.47407,-1.6482 2.52097,-3.66237 2.9375,-5.875 l 11.71875,0 0,-52.96875 4.8125,0 0,-5.75 -28.71875,0 0,-7.125 4.375,0 0,-5.9375 -49.71875,0 0,5.9375 4.53125,0 0,7.125 -29.75,0 0,5.75 4.71875,0 0,52.96875 10.15625,0 c 0.43264,2.21217 1.47832,4.23497 2.96875,5.875 l -50.0625,0 c 1.23504,-1.54229 2.1271,-3.36288 2.5,-5.34375 l 11.71875,0 0,-52.96875 4.8125,0 0,-5.71875 -99.28125,0 0,5.71875 4.6875,0 0,52.96875 10.1875,0 c 0.3876,1.98187 1.28006,3.80733 2.53125,5.34375 l -0.4375,0 -42.3125,0 c 1.15074,-1.55465 1.96263,-3.37725 2.28125,-5.40625 l 7.5625,0 0,-62.59375 5.4375,0 0,-5.75 -50.312499,0 0,5.75 5.4375,0 0,19.40625 -15.1875,0 -9.40625,0 -7.46875,0 -5.9375,0 c 0,0 -3.41074,-0.32779 -5.1875,1.90625 -1.72457,2.16837 -1.40625,5.03125 -1.40625,5.03125 -0.81639,0.71833 -2.40326,1.33614 -3.8125,2.3125 -0.0513,2.76296 -0.0625,9.88297 -0.0625,12.21875 1.46544,0.71871 2.86135,1.29589 3.875,1.875 l 0,2.6875 -1.75,2.4375 -10.53125,14.71875 17.71875,0 c 0.36069,1.99999 1.20404,3.84181 2.375,5.40625 l -29.59375,0 0,19.53125 52.75,0 0,30.20958 -52.75,0 0,19.56252 76.749999,0 62.875,0 424.78125,0 0,-19.56252 -56.65625,0 0,-30.20958 56.65625,0 0,-19.53125 -27.875,0 c 1.83121,-1.76241 3.1167,-4.02842 3.59375,-6.5625 l 11.71875,0 0,-52.96875 4.8125,0 0,-5.75 -12.84375,0 0,-7.125 4.40625,0 0,-5.96875 -49.71875,0 0,5.96875 4.53125,0 0,7.125 -17.21875,0 -10.03125,0 z m -400.437499,0.15625 21.281249,0 0,16.5 -21.281249,0 0,-16.5 z m 397.281249,14.78125 29.28125,0 0,18.90625 -29.28125,0 0,-18.90625 z m 39.25,0 29.25,0 0,18.90625 -29.25,0 0,-18.90625 z m -151.34375,0.46875 29.28125,0 0,18.9375 -29.28125,0 0,-18.9375 z m 39.25,0 29.28125,0 0,18.9375 -29.28125,0 0,-18.9375 z m -150.75,0.21875 29.28125,0 0,18.9375 -29.28125,0 0,-18.9375 z m 39.25,0 29.28125,0 0,18.9375 -29.28125,0 0,-18.9375 z m -151.71875,0.5625 29.28125,0 0,18.90625 -29.28125,0 0,-18.90625 z m 39.21875,0 29.3125,0 0,18.90625 -29.3125,0 0,-18.90625 z m 322.5,42.53125 15.75,0 c 0.47717,2.53466 1.76186,4.79992 3.59375,6.5625 l -23.03125,0 c 1.86176,-1.75527 3.18952,-4.01627 3.6875,-6.5625 z m -112.09375,0.46875 15.75,0 c 0.43623,2.31723 1.56909,4.4041 3.15625,6.09375 l -22.09375,0 c 1.60106,-1.68043 2.73454,-3.7777 3.1875,-6.09375 z m -111.5,0.21875 15.75,0 c 0.41654,2.21262 1.46343,4.22681 2.9375,5.875 l -21.65625,0 c 1.48819,-1.64004 2.53611,-3.66282 2.96875,-5.875 z m -222.156249,0.46875 20.28125,0 c 0.31891,2.0309 1.12876,3.85067 2.28125,5.40625 l -24.90625,0 c 1.16911,-1.56444 1.98306,-3.40626 2.34375,-5.40625 z m 109.687499,0.0625 15.75,0 c 0.37291,1.98088 1.23371,3.80146 2.46875,5.34375 l -20.75,0 c 1.24927,-1.53642 2.14365,-3.36188 2.53125,-5.34375 z m -89.968749,24.875 52.749999,0 0,30.20958 -52.749999,0 0,-30.20958 z m 72.249999,0 52.75,0 0,30.20958 -52.75,0 0,-30.20958 z m 72.28125,0 52.71875,0 0,30.20958 -52.71875,0 0,-30.20958 z m 72.25,0 52.75,0 0,30.20958 -52.75,0 0,-30.20958 z m 72.25,0 52.75,0 0,30.20958 -52.75,0 0,-30.20958 z m 72.25,0 54.71875,0 0,30.20958 -54.71875,0 0,-30.20958 z"
       style="fill:#ff6600;fill-opacity:1;fill-rule:evenodd;stroke:none;stroke-width:0.15687691px;marker:none;visibility:visible;display:inline;overflow:visible;enable-background:accumulate"
       inkscape:connector-curvature="0"
       transform="translate(123.74369,-0.36837354)"
       inkscape:export-filename="/Users/ericdebelak/Downloads/TrainBorder/Train.png"
       inkscape:export-xdpi="600"
       inkscape:export-ydpi="600" />
    <path
       transform="translate(239.70308,-0.36837354)"
       inkscape:connector-curvature="0"
       style="fill:#476aff;fill-opacity:1;fill-rule:evenodd;stroke:none;stroke-width:0.15687691px;marker:none;visibility:visible;display:inline;overflow:visible;enable-background:accumulate"
       d="m 499.29241,537.33104 -18.40625,0 0,5.75 4.6875,0 0,52.96875 10.15625,0 c 0.49797,2.54623 1.82304,4.80723 3.6875,6.5625 l -51.03125,0 c 1.58716,-1.68965 2.72002,-3.77652 3.15625,-6.09375 l 11.71875,0 0,-52.96875 4.8125,0 0,-5.75 -99.28125,0 0,5.75 4.6875,0 0,52.96875 10.1875,0 c 0.45296,2.31605 1.58406,4.41332 3.1875,6.09375 l -49.75,0 c 1.47407,-1.6482 2.52097,-3.66237 2.9375,-5.875 l 11.71875,0 0,-52.96875 4.8125,0 0,-5.75 -28.71875,0 0,-7.125 4.375,0 0,-5.9375 -49.71875,0 0,5.9375 4.53125,0 0,7.125 -29.75,0 0,5.75 4.71875,0 0,52.96875 10.15625,0 c 0.43264,2.21217 1.47832,4.23497 2.96875,5.875 l -50.0625,0 c 1.23504,-1.54229 2.1271,-3.36288 2.5,-5.34375 l 11.71875,0 0,-52.96875 4.8125,0 0,-5.71875 -99.28125,0 0,5.71875 4.6875,0 0,52.96875 10.1875,0 c 0.3876,1.98187 1.28006,3.80733 2.53125,5.34375 l -0.4375,0 -42.3125,0 c 1.15074,-1.55465 1.96263,-3.37725 2.28125,-5.40625 l 7.5625,0 0,-62.59375 5.4375,0 0,-5.75 -50.312499,0 0,5.75 5.4375,0 0,19.40625 -15.1875,0 -9.40625,0 -7.46875,0 -5.9375,0 c 0,0 -3.41074,-0.32779 -5.1875,1.90625 -1.72457,2.16837 -1.40625,5.03125 -1.40625,5.03125 -0.81639,0.71833 -2.40326,1.33614 -3.8125,2.3125 -0.0513,2.76296 -0.0625,9.88297 -0.0625,12.21875 1.46544,0.71871 2.86135,1.29589 3.875,1.875 l 0,2.6875 -1.75,2.4375 -10.53125,14.71875 17.71875,0 c 0.36069,1.99999 1.20404,3.84181 2.375,5.40625 l -29.59375,0 0,19.53125 52.75,0 0,30.20958 -52.75,0 0,19.56252 76.749999,0 62.875,0 424.78125,0 0,-19.56252 -56.65625,0 0,-30.20958 56.65625,0 0,-19.53125 -27.875,0 c 1.83121,-1.76241 3.1167,-4.02842 3.59375,-6.5625 l 11.71875,0 0,-52.96875 4.8125,0 0,-5.75 -12.84375,0 0,-7.125 4.40625,0 0,-5.96875 -49.71875,0 0,5.96875 4.53125,0 0,7.125 -17.21875,0 -10.03125,0 z m -400.437499,0.15625 21.281249,0 0,16.5 -21.281249,0 0,-16.5 z m 397.281249,14.78125 29.28125,0 0,18.90625 -29.28125,0 0,-18.90625 z m 39.25,0 29.25,0 0,18.90625 -29.25,0 0,-18.90625 z m -151.34375,0.46875 29.28125,0 0,18.9375 -29.28125,0 0,-18.9375 z m 39.25,0 29.28125,0 0,18.9375 -29.28125,0 0,-18.9375 z m -150.75,0.21875 29.28125,0 0,18.9375 -29.28125,0 0,-18.9375 z m 39.25,0 29.28125,0 0,18.9375 -29.28125,0 0,-18.9375 z m -151.71875,0.5625 29.28125,0 0,18.90625 -29.28125,0 0,-18.90625 z m 39.21875,0 29.3125,0 0,18.90625 -29.3125,0 0,-18.90625 z m 322.5,42.53125 15.75,0 c 0.47717,2.53466 1.76186,4.79992 3.59375,6.5625 l -23.03125,0 c 1.86176,-1.75527 3.18952,-4.01627 3.6875,-6.5625 z m -112.09375,0.46875 15.75,0 c 0.43623,2.31723 1.56909,4.4041 3.15625,6.09375 l -22.09375,0 c 1.60106,-1.68043 2.73454,-3.7777 3.1875,-6.09375 z m -111.5,0.21875 15.75,0 c 0.41654,2.21262 1.46343,4.22681 2.9375,5.875 l -21.65625,0 c 1.48819,-1.64004 2.53611,-3.66282 2.96875,-5.875 z m -222.156249,0.46875 20.28125,0 c 0.31891,2.0309 1.12876,3.85067 2.28125,5.40625 l -24.90625,0 c 1.16911,-1.56444 1.98306,-3.40626 2.34375,-5.40625 z m 109.687499,0.0625 15.75,0 c 0.37291,1.98088 1.23371,3.80146 2.46875,5.34375 l -20.75,0 c 1.24927,-1.53642 2.14365,-3.36188 2.53125,-5.34375 z m -89.968749,24.875 52.749999,0 0,30.20958 -52.749999,0 0,-30.20958 z m 72.249999,0 52.75,0 0,30.20958 -52.75,0 0,-30.20958 z m 72.28125,0 52.71875,0 0,30.20958 -52.71875,0 0,-30.20958 z m 72.25,0 52.75,0 0,30.20958 -52.75,0 0,-30.20958 z m 72.25,0 52.75,0 0,30.20958 -52.75,0 0,-30.20958 z m 72.25,0 54.71875,0 0,30.20958 -54.71875,0 0,-30.20958 z"
       id="path3007"
       sodipodi:nodetypes="ccccccccccccccccccccccccccccccccccccccccccccccccccccccccccccccccccsccccccccccccccccccccccccccccccccccccccccccccccccccccccccccccccccccccccccccccccccccccccccccccccccccccccccccccccccccccccccccccccccccccccccccc"
       clip-path="url(#clipPath3003)"
       inkscape:export-filename="/Users/ericdebelak/Downloads/TrainBorder/Train.png"
       inkscape:export-xdpi="600"
       inkscape:export-ydpi="600" />
    <path
       clip-path="url(#clipPath3003)"
       sodipodi:nodetypes="ccccccccccccccccccccccccccccccccccccccccccccccccccccccccccccccccccsccccccccccccccccccccccccccccccccccccccccccccccccccccccccccccccccccccccccccccccccccccccccccccccccccccccccccccccccccccccccccccccccccccccccccc"
       id="path3009"
       d="m 499.29241,537.33104 -18.40625,0 0,5.75 4.6875,0 0,52.96875 10.15625,0 c 0.49797,2.54623 1.82304,4.80723 3.6875,6.5625 l -51.03125,0 c 1.58716,-1.68965 2.72002,-3.77652 3.15625,-6.09375 l 11.71875,0 0,-52.96875 4.8125,0 0,-5.75 -99.28125,0 0,5.75 4.6875,0 0,52.96875 10.1875,0 c 0.45296,2.31605 1.58406,4.41332 3.1875,6.09375 l -49.75,0 c 1.47407,-1.6482 2.52097,-3.66237 2.9375,-5.875 l 11.71875,0 0,-52.96875 4.8125,0 0,-5.75 -28.71875,0 0,-7.125 4.375,0 0,-5.9375 -49.71875,0 0,5.9375 4.53125,0 0,7.125 -29.75,0 0,5.75 4.71875,0 0,52.96875 10.15625,0 c 0.43264,2.21217 1.47832,4.23497 2.96875,5.875 l -50.0625,0 c 1.23504,-1.54229 2.1271,-3.36288 2.5,-5.34375 l 11.71875,0 0,-52.96875 4.8125,0 0,-5.71875 -99.28125,0 0,5.71875 4.6875,0 0,52.96875 10.1875,0 c 0.3876,1.98187 1.28006,3.80733 2.53125,5.34375 l -0.4375,0 -42.3125,0 c 1.15074,-1.55465 1.96263,-3.37725 2.28125,-5.40625 l 7.5625,0 0,-62.59375 5.4375,0 0,-5.75 -50.312499,0 0,5.75 5.4375,0 0,19.40625 -15.1875,0 -9.40625,0 -7.46875,0 -5.9375,0 c 0,0 -3.41074,-0.32779 -5.1875,1.90625 -1.72457,2.16837 -1.40625,5.03125 -1.40625,5.03125 -0.81639,0.71833 -2.40326,1.33614 -3.8125,2.3125 -0.0513,2.76296 -0.0625,9.88297 -0.0625,12.21875 1.46544,0.71871 2.86135,1.29589 3.875,1.875 l 0,2.6875 -1.75,2.4375 -10.53125,14.71875 17.71875,0 c 0.36069,1.99999 1.20404,3.84181 2.375,5.40625 l -29.59375,0 0,19.53125 52.75,0 0,30.20958 -52.75,0 0,19.56252 76.749999,0 62.875,0 424.78125,0 0,-19.56252 -56.65625,0 0,-30.20958 56.65625,0 0,-19.53125 -27.875,0 c 1.83121,-1.76241 3.1167,-4.02842 3.59375,-6.5625 l 11.71875,0 0,-52.96875 4.8125,0 0,-5.75 -12.84375,0 0,-7.125 4.40625,0 0,-5.96875 -49.71875,0 0,5.96875 4.53125,0 0,7.125 -17.21875,0 -10.03125,0 z m -400.437499,0.15625 21.281249,0 0,16.5 -21.281249,0 0,-16.5 z m 397.281249,14.78125 29.28125,0 0,18.90625 -29.28125,0 0,-18.90625 z m 39.25,0 29.25,0 0,18.90625 -29.25,0 0,-18.90625 z m -151.34375,0.46875 29.28125,0 0,18.9375 -29.28125,0 0,-18.9375 z m 39.25,0 29.28125,0 0,18.9375 -29.28125,0 0,-18.9375 z m -150.75,0.21875 29.28125,0 0,18.9375 -29.28125,0 0,-18.9375 z m 39.25,0 29.28125,0 0,18.9375 -29.28125,0 0,-18.9375 z m -151.71875,0.5625 29.28125,0 0,18.90625 -29.28125,0 0,-18.90625 z m 39.21875,0 29.3125,0 0,18.90625 -29.3125,0 0,-18.90625 z m 322.5,42.53125 15.75,0 c 0.47717,2.53466 1.76186,4.79992 3.59375,6.5625 l -23.03125,0 c 1.86176,-1.75527 3.18952,-4.01627 3.6875,-6.5625 z m -112.09375,0.46875 15.75,0 c 0.43623,2.31723 1.56909,4.4041 3.15625,6.09375 l -22.09375,0 c 1.60106,-1.68043 2.73454,-3.7777 3.1875,-6.09375 z m -111.5,0.21875 15.75,0 c 0.41654,2.21262 1.46343,4.22681 2.9375,5.875 l -21.65625,0 c 1.48819,-1.64004 2.53611,-3.66282 2.96875,-5.875 z m -222.156249,0.46875 20.28125,0 c 0.31891,2.0309 1.12876,3.85067 2.28125,5.40625 l -24.90625,0 c 1.16911,-1.56444 1.98306,-3.40626 2.34375,-5.40625 z m 109.687499,0.0625 15.75,0 c 0.37291,1.98088 1.23371,3.80146 2.46875,5.34375 l -20.75,0 c 1.24927,-1.53642 2.14365,-3.36188 2.53125,-5.34375 z m -89.968749,24.875 52.749999,0 0,30.20958 -52.749999,0 0,-30.20958 z m 72.249999,0 52.75,0 0,30.20958 -52.75,0 0,-30.20958 z m 72.28125,0 52.71875,0 0,30.20958 -52.71875,0 0,-30.20958 z m 72.25,0 52.75,0 0,30.20958 -52.75,0 0,-30.20958 z m 72.25,0 52.75,0 0,30.20958 -52.75,0 0,-30.20958 z m 72.25,0 54.71875,0 0,30.20958 -54.71875,0 0,-30.20958 z"
       style="fill:#007400;fill-opacity:1;fill-rule:evenodd;stroke:none;stroke-width:0.15687691px;marker:none;visibility:visible;display:inline;overflow:visible;enable-background:accumulate"
       inkscape:connector-curvature="0"
       transform="translate(9.2023333,-0.36837354)"
       inkscape:export-filename="/Users/ericdebelak/Downloads/TrainBorder/Train.png"
       inkscape:export-xdpi="600"
       inkscape:export-ydpi="600" />
    <rect
       style="fill:#000000;fill-opacity:1;fill-rule:nonzero;stroke:#000000;stroke-width:0.1960139;stroke-miterlimit:4;stroke-opacity:1;stroke-dasharray:none;stroke-dashoffset:0"
       id="rect3011"
       width="473.80051"
       height="7.9652452"
       x="23.800579"
       y="602.26154"
       inkscape:export-filename="/Users/ericdebelak/Downloads/TrainBorder/Train.png"
       inkscape:export-xdpi="600"
       inkscape:export-ydpi="600" />
    <path
       style="fill:#d90000;fill-opacity:1;stroke:none"
       d="M 43.057752,31.258264 42.931483,15.47463 55.053314,-3.2131918 18.056477,-3.4657299 30.809653,15.348362 l 0,15.278557 z"
       id="path3013"
       inkscape:connector-curvature="0"
       transform="translate(23.511161,524.23729)"
       sodipodi:nodetypes="ccccccc"
       inkscape:export-filename="/Users/ericdebelak/Downloads/TrainBorder/Train.png"
       inkscape:export-xdpi="600"
       inkscape:export-ydpi="600" />
    <g
       id="g3819"
       transform="matrix(0.70459472,0.17907551,-0.1593166,0.79198061,147.04495,54.409482)"
       style="fill:#ff6600"
       inkscape:export-filename="/Users/ericdebelak/Downloads/TrainBorder/Train.png"
       inkscape:export-xdpi="600"
       inkscape:export-ydpi="600">
      <path
         transform="translate(23.511161,524.23729)"
         d="m 70.205602,-26.572969 c 0,3.626296 -4.522607,6.565991 -10.101526,6.565991 -5.578918,0 -10.101525,-2.939695 -10.101525,-6.565991 0,-3.626297 4.522607,-6.565992 10.101525,-6.565992 5.578919,0 10.101526,2.939695 10.101526,6.565992 z"
         sodipodi:ry="6.5659914"
         sodipodi:rx="10.101525"
         sodipodi:cy="-26.572969"
         sodipodi:cx="60.104076"
         id="path3813"
         style="fill:#ff6600;fill-opacity:1;fill-rule:nonzero;stroke:none"
         sodipodi:type="arc" />
      <rect
         y="444.63132"
         x="90.538376"
         height="53.538086"
         width="3.0304577"
         id="rect3815"
         style="fill:#ff6600;fill-opacity:1;fill-rule:nonzero;stroke:none" />
      <path
         sodipodi:nodetypes="sccccs"
         inkscape:connector-curvature="0"
         id="path3817"
         d="m 93.571459,444.70397 c 2.387477,0.64326 11.755901,5.16846 12.610271,11.37953 1.30462,9.0853 -0.0113,12.73715 0.14793,18.86639 -1.49733,-5.19231 -0.004,-13.47555 -4.1579,-19.05022 -2.417721,-2.7407 -5.993679,-4.50422 -8.884792,-6.29814 0,0 -0.11253,-5.00453 0.284491,-4.89756 z"
         style="fill:#ff6600;stroke:none" />
    </g>
    <g
       id="g3835"
       transform="matrix(0.61433543,0.28605726,-0.28589587,0.61650844,194.92575,154.69221)"
       style="fill:#476aff"
       inkscape:export-filename="/Users/ericdebelak/Downloads/TrainBorder/Train.png"
       inkscape:export-xdpi="600"
       inkscape:export-ydpi="600">
      <path
         sodipodi:type="arc"
         style="fill:#476aff;fill-opacity:1;fill-rule:nonzero;stroke:none"
         id="path3826"
         sodipodi:cx="60.104076"
         sodipodi:cy="-26.572969"
         sodipodi:rx="10.101525"
         sodipodi:ry="6.5659914"
         d="m 70.205602,-26.572969 c 0,3.626296 -4.522607,6.565991 -10.101526,6.565991 -5.578918,0 -10.101525,-2.939695 -10.101525,-6.565991 0,-3.626297 4.522607,-6.565992 10.101525,-6.565992 5.578919,0 10.101526,2.939695 10.101526,6.565992 z"
         transform="matrix(0.81456725,-0.58006913,0.58006913,0.81456725,47.632,544.2471)" />
      <rect
         transform="matrix(0.81456725,-0.58006913,0.58006913,0.81456725,0,0)"
         style="fill:#476aff;fill-opacity:1;fill-rule:nonzero;stroke:none"
         id="rect3828"
         width="3.0304577"
         height="53.538086"
         x="-209.87425"
         y="391.34973" />
    </g>
    <g
       id="g3854"
       transform="matrix(0.68598363,0,0,0.67629544,-13.882191,198.59839)"
       style="fill:#007400"
       inkscape:export-filename="/Users/ericdebelak/Downloads/TrainBorder/Train.png"
       inkscape:export-xdpi="600"
       inkscape:export-ydpi="600">
      <g
         id="g3839"
         transform="matrix(0.96777318,0.25182349,-0.25182349,0.96777318,167.15658,-33.899561)"
         style="fill:#007400">
        <path
           sodipodi:type="arc"
           style="fill:#007400;fill-opacity:1;fill-rule:nonzero;stroke:none"
           id="path3841"
           sodipodi:cx="60.104076"
           sodipodi:cy="-26.572969"
           sodipodi:rx="10.101525"
           sodipodi:ry="6.5659914"
           d="m 70.205602,-26.572969 c 0,3.626296 -4.522607,6.565991 -10.101526,6.565991 -5.578918,0 -10.101525,-2.939695 -10.101525,-6.565991 0,-3.626297 4.522607,-6.565992 10.101525,-6.565992 5.578919,0 10.101526,2.939695 10.101526,6.565992 z"
           transform="matrix(0.81456725,-0.58006913,0.58006913,0.81456725,47.632,544.2471)" />
        <rect
           transform="matrix(0.81456725,-0.58006913,0.58006913,0.81456725,0,0)"
           style="fill:#007400;fill-opacity:1;fill-rule:nonzero;stroke:none"
           id="rect3843"
           width="3.0304577"
           height="53.538086"
           x="-209.87425"
           y="391.34973" />
      </g>
      <g
         transform="matrix(0.96777318,0.25182349,-0.25182349,0.96777318,190.49954,-46.15885)"
         id="g3845"
         style="fill:#007400">
        <path
           transform="matrix(0.81456725,-0.58006913,0.58006913,0.81456725,47.632,544.2471)"
           d="m 70.205602,-26.572969 c 0,3.626296 -4.522607,6.565991 -10.101526,6.565991 -5.578918,0 -10.101525,-2.939695 -10.101525,-6.565991 0,-3.626297 4.522607,-6.565992 10.101525,-6.565992 5.578919,0 10.101526,2.939695 10.101526,6.565992 z"
           sodipodi:ry="6.5659914"
           sodipodi:rx="10.101525"
           sodipodi:cy="-26.572969"
           sodipodi:cx="60.104076"
           id="path3847"
           style="fill:#007400;fill-opacity:1;fill-rule:nonzero;stroke:none"
           sodipodi:type="arc" />
        <rect
           y="391.34973"
           x="-209.87425"
           height="53.538086"
           width="3.0304577"
           id="rect3849"
           style="fill:#007400;fill-opacity:1;fill-rule:nonzero;stroke:none"
           transform="matrix(0.81456725,-0.58006913,0.58006913,0.81456725,0,0)" />
      </g>
      <path
         sodipodi:nodetypes="ccccc"
         inkscape:connector-curvature="0"
         id="rect3851"
         d="m -134.17622,413.44046 29.29534,-0.007 -0.65979,3.29182 -28.63555,0 z"
         style="fill:#007400;fill-opacity:1;fill-rule:nonzero;stroke:none"
         transform="matrix(0.88508875,-0.46542228,0.554532,0.8321624,0,0)" />
    </g>
  </g>
</svg>
